SplineFontDB: 3.0
FontName: hasi
ItalicAngle: 0
UnderlinePosition: -123
UnderlineWidth: 20
Ascent: 900
Descent: 300
sfntRevision: 0x00010000
LayerCount: 2
Layer: 0 1 "Back"  1
Layer: 1 1 "Zeichen"  0
XUID: [1021 716 406201299 299843]
OS2Version: 0
OS2_WeightWidthSlopeOnly: 0
OS2_UseTypoMetrics: 1
CreationTime: 1406832387
ModificationTime: 1407862367
PfmFamily: 81
TTFWeight: 400
TTFWidth: 5
LineGap: 0
VLineGap: 0
Panose: 0 0 2 0 0 0 0 0 0 0
OS2TypoAscent: 900
OS2TypoAOffset: 0
OS2TypoDescent: -300
OS2TypoDOffset: 0
OS2TypoLinegap: 0
OS2WinAscent: 900
OS2WinAOffset: 0
OS2WinDescent: 0
OS2WinDOffset: 0
HheadAscent: 900
HheadAOffset: 0
HheadDescent: -300
HheadDOffset: 0
OS2SubXSize: 840
OS2SubYSize: 780
OS2SubXOff: 0
OS2SubYOff: 172
OS2SupXSize: 840
OS2SupYSize: 780
OS2SupXOff: 0
OS2SupYOff: 544
OS2StrikeYSize: 60
OS2StrikeYPos: 311
OS2Vendor: 'Alts'
OS2UnicodeRanges: 00000000.00000000.00000000.00000000
MarkAttachClasses: 1
DEI: 91125
TtTable: prep
NPUSHB
 11
 8
 8
 7
 7
 6
 6
 1
 1
 0
 0
 1
SCANTYPE
PUSHW_1
 511
SCANCTRL
RCVT
ROUND[Grey]
WCVTP
RCVT
ROUND[Grey]
WCVTP
RCVT
ROUND[Grey]
WCVTP
RCVT
ROUND[Grey]
WCVTP
RCVT
ROUND[Grey]
WCVTP
PUSHB_4
 3
 2
 70
 0
CALL
PUSHB_4
 5
 4
 70
 0
CALL
PUSHB_2
 2
 2
RCVT
ROUND[Grey]
WCVTP
PUSHB_2
 4
 4
RCVT
ROUND[Grey]
WCVTP
EndTTInstrs
TtTable: fpgm
NPUSHB
 1
 0
FDEF
SROUND
RCVT
DUP
PUSHB_1
 3
CINDEX
RCVT
SWAP
SUB
ROUND[Grey]
RTG
SWAP
ROUND[Grey]
ADD
WCVTP
ENDF
EndTTInstrs
ShortTable: cvt  22
  0
  750
  150
  300
  150
  300
  450
  600
  450
  23143
  4614
  -11592
  27160
  -2006
  24995
  3648
  -4398
  -32710
  10069
  -23929
  1
  13
EndShort
ShortTable: maxp 16
  1
  0
  99
  36
  9
  0
  0
  2
  8
  64
  10
  0
  256
  167
  1
  1
EndShort
LangName: 1033 "" "" "" "101010 101010 101010 101010 101010" "" "1.0" 
Encoding: Custom
Compacted: 1
UnicodeInterp: none
NameList: AGL For New Fonts
DisplaySize: -48
AntiAlias: 1
FitToEm: 1
WinInfo: 0 38 16
BeginPrivate: 0
EndPrivate
Grid
-305.823156779 1500 m 0
 -305.823156779 -900 l 1024

StartChar: .notdef
Encoding: 256 -1 0
Width: 600
Flags: W
LayerCount: 2
Fore
SplineSet
75 0 m 1,0,-1
 75 900 l 1,1,-1
 525 900 l 1,2,-1
 525 0 l 1,3,-1
 75 0 l 1,0,-1
150 75 m 1,4,-1
 450 75 l 1,5,-1
 450 825 l 1,6,-1
 150 825 l 1,7,-1
 150 75 l 1,4,-1
EndSplineSet
Validated: 1
EndChar

StartChar: exclam
Encoding: 260 33 4
Width: 600
Flags: W
LayerCount: 2
Fore
SplineSet
0 0 m 25,0,-1
 0 750 l 25,1,-1
 149.999969482 750 l 25,2,-1
 149.999969482 300 l 25,3,-1
 299.999969482 300 l 25,4,-1
 299.999969482 150 l 25,5,-1
 149.999969482 150 l 25,6,-1
 149.999969482 0 l 25,7,-1
 0 0 l 25,0,-1
EndSplineSet
Validated: 1
EndChar

StartChar: quotedbl
Encoding: 261 34 5
Width: 600
Flags: W
LayerCount: 2
Fore
SplineSet
0 750 m 29,0,-1
 0 0 l 29,1,-1
 600 0 l 29,2,-1
 600 450 l 29,3,-1
 450 450 l 29,4,-1
 450 750 l 29,5,-1
 299.999969482 750 l 29,6,-1
 299.999969482 450 l 29,7,-1
 149.999969482 450 l 29,8,-1
 149.999969482 750 l 29,9,-1
 0 750 l 29,0,-1
EndSplineSet
Validated: 9
EndChar

StartChar: numbersign
Encoding: 262 35 6
Width: 900
Flags: W
LayerCount: 2
Fore
SplineSet
750 150 m 25,0,-1
 750 0 l 25,1,-1
 900 0 l 25,2,-1
 900 150 l 25,3,-1
 750 150 l 25,0,-1
450 150 m 25,4,-1
 450 0 l 25,5,-1
 600 0 l 25,6,-1
 600 150 l 25,7,-1
 450 150 l 25,4,-1
450 750 m 25,8,-1
 450 600 l 25,9,-1
 600 600 l 25,10,-1
 600 750 l 25,11,-1
 450 750 l 25,8,-1
750 750 m 25,12,-1
 750 600 l 25,13,-1
 900 600 l 25,14,-1
 900 750 l 25,15,-1
 750 750 l 25,12,-1
750 450 m 25,16,-1
 750 300 l 25,17,-1
 900 300 l 25,18,-1
 900 450 l 25,19,-1
 750 450 l 25,16,-1
450 450 m 25,20,-1
 450 300 l 25,21,-1
 600 300 l 25,22,-1
 600 450 l 25,23,-1
 450 450 l 25,20,-1
299.999969482 0 m 5,24,-1
 299.999969482 150 l 29,25,-1
 149.999969482 150 l 29,26,-1
 149.999969482 300 l 29,27,-1
 299.999969482 300 l 29,28,-1
 299.999969482 450 l 29,29,-1
 149.999969482 450 l 29,30,-1
 149.999969482 600 l 29,31,-1
 299.999969482 600 l 29,32,-1
 299.999969482 750 l 5,33,-1
 0 750 l 29,34,-1
 0 0 l 29,35,-1
 299.999969482 0 l 5,24,-1
EndSplineSet
Validated: 9
EndChar

StartChar: dollar
Encoding: 263 36 7
Width: 750
Flags: W
LayerCount: 2
Fore
SplineSet
149.999969482 600 m 25,0,-1
 149.999969482 450 l 25,1,-1
 299.999969482 450 l 25,2,-1
 299.999969482 600 l 25,3,-1
 149.999969482 600 l 25,0,-1
450 300 m 25,4,-1
 450 150 l 25,5,-1
 600 150 l 25,6,-1
 600 300 l 25,7,-1
 450 300 l 25,4,-1
750 450 m 25,8,-1
 450 450 l 25,9,-1
 450 600 l 25,10,-1
 750 600 l 25,11,-1
 750 450 l 25,8,-1
0 150 m 25,12,-1
 299.999969482 150 l 25,13,-1
 299.999969482 300 l 25,14,-1
 0 300 l 25,15,-1
 0 150 l 25,12,-1
EndSplineSet
Validated: 9
EndChar

StartChar: ampersand
Encoding: 265 38 9
Width: 1050
Flags: W
LayerCount: 2
Fore
SplineSet
900.032409668 0 m 25,0,-1
 900.032226562 150 l 25,1,-1
 750.014992296 150 l 25,2,-1
 750.014992296 0 l 25,3,-1
 900.032409668 0 l 25,0,-1
900.032226562 150 m 25,4,-1
 1050 150 l 25,5,-1
 1050 300 l 25,6,-1
 900.032226562 300 l 25,7,-1
 900.032226562 150 l 25,4,-1
900.032409668 300 m 25,8,-1
 900.032409668 450 l 25,9,-1
 1050 450 l 25,10,-1
 1050 750 l 25,11,-1
 750.014992296 750 l 25,12,-1
 750.014992296 450 l 25,13,-1
 600 450 l 25,14,-1
 600 300 l 25,15,-1
 900.032409668 300 l 25,8,-1
299.999969482 150 m 25,16,-1
 600 150 l 25,17,-1
 600 300 l 25,18,-1
 299.999969482 300 l 25,19,-1
 299.999969482 150 l 25,16,-1
299.999969482 600 m 25,20,-1
 600 600 l 25,21,-1
 600 450 l 25,22,-1
 299.999969482 450 l 25,23,-1
 299.999969482 600 l 25,20,-1
0 750 m 25,24,-1
 149.999969482 750 l 25,25,-1
 149.999969482 450 l 25,26,-1
 299.999969482 450 l 25,27,-1
 299.999969482 300 l 25,28,-1
 149.999969482 300 l 25,29,-1
 149.999969482 0 l 25,30,-1
 0 0 l 25,31,-1
 0 750 l 25,24,-1
EndSplineSet
Validated: 5
EndChar

StartChar: quotesingle
Encoding: 266 39 10
Width: 300
Flags: W
LayerCount: 2
Fore
SplineSet
0 750 m 25,0,-1
 0 0 l 25,1,-1
 299.999969482 0 l 25,2,-1
 299.999969482 450 l 25,3,-1
 149.999969482 450 l 25,4,-1
 149.999969482 750 l 25,5,-1
 0 750 l 25,0,-1
EndSplineSet
Validated: 9
EndChar

StartChar: parenleft
Encoding: 267 40 11
Width: 450
Flags: W
LayerCount: 2
Fore
SplineSet
450 150 m 25,0,-1
 450 600 l 25,1,-1
 299.999969482 600 l 25,2,-1
 299.999969482 150 l 25,3,-1
 450 150 l 25,0,-1
299.999969482 150 m 25,4,-1
 149.999969482 150 l 25,5,-1
 149.999969482 600 l 25,6,-1
 299.999969482 600 l 25,7,-1
 299.999969482 750 l 25,8,-1
 0 750 l 25,9,-1
 0 0 l 25,10,-1
 299.999969482 0 l 25,11,-1
 299.999969482 150 l 25,4,-1
EndSplineSet
Validated: 5
EndChar

StartChar: parenright
Encoding: 268 41 12
Width: 450
Flags: W
LayerCount: 2
Fore
SplineSet
299.999969482 0 m 25,0,-1
 450 0 l 25,1,-1
 450 150 l 25,2,-1
 299.999969482 150 l 25,3,-1
 299.999969482 0 l 25,0,-1
450 600 m 25,4,-1
 450 750 l 25,5,-1
 299.999969482 750 l 25,6,-1
 299.999969482 600 l 25,7,-1
 450 600 l 25,4,-1
0 0 m 25,8,-1
 149.999969482 0 l 25,9,-1
 149.999969482 150 l 25,10,-1
 299.999969482 150 l 25,11,-1
 299.999969482 600 l 25,12,-1
 149.999969482 600 l 25,13,-1
 149.999969482 750 l 25,14,-1
 0 750 l 25,15,-1
 0 0 l 25,8,-1
EndSplineSet
Validated: 5
EndChar

StartChar: asterisk
Encoding: 269 42 13
Width: 600
Flags: W
LayerCount: 2
Fore
SplineSet
600 300 m 25,0,-1
 600 450 l 25,1,-1
 450 450 l 25,2,-1
 450 300 l 25,3,-1
 600 300 l 25,0,-1
0 750 m 25,4,-1
 0 0 l 25,5,-1
 600 0 l 25,6,-1
 600 150 l 25,7,-1
 450 150 l 25,8,-1
 450 300 l 25,9,-1
 299.999969482 300 l 25,10,-1
 299.999969482 150 l 25,11,-1
 149.999969482 150 l 25,12,-1
 149.999969482 300 l 25,13,-1
 299.999969482 300 l 25,14,-1
 299.999969482 450 l 25,15,-1
 149.999969482 450 l 25,16,-1
 149.999969482 600 l 25,17,-1
 299.999969482 600 l 25,18,-1
 299.999969482 450 l 25,19,-1
 450 450 l 25,20,-1
 450 600 l 25,21,-1
 600 600 l 25,22,-1
 600 750 l 25,23,-1
 0 750 l 25,4,-1
EndSplineSet
Validated: 5
EndChar

StartChar: plus
Encoding: 270 43 14
Width: 600
Flags: W
LayerCount: 2
Fore
SplineSet
0 0 m 25,0,-1
 600 0 l 25,1,-1
 600 300 l 25,2,-1
 450 300 l 25,3,-1
 450 150 l 25,4,-1
 299.999969482 150 l 25,5,-1
 299.999969482 300 l 25,6,-1
 149.999969482 300 l 25,7,-1
 149.999969482 450 l 25,8,-1
 299.999969482 450 l 25,9,-1
 299.999969482 600 l 25,10,-1
 450 600 l 25,11,-1
 450 450 l 25,12,-1
 600 450 l 25,13,-1
 600 750 l 25,14,-1
 0 750 l 25,15,-1
 0 0 l 25,0,-1
EndSplineSet
Validated: 9
EndChar

StartChar: comma
Encoding: 271 44 15
Width: 300
Flags: W
LayerCount: 2
Fore
SplineSet
0 0 m 25,0,-1
 149.999969482 0 l 1,1,-1
 150 300 l 1,2,-1
 300 300 l 1,3,-1
 300 750 l 1,4,-1
 0 750 l 25,5,-1
 0 0 l 25,0,-1
EndSplineSet
Validated: 9
EndChar

StartChar: hyphen
Encoding: 272 45 16
AltUni2: 002010.ffffffff.0
Width: 600
Flags: W
LayerCount: 2
Fore
SplineSet
0 0 m 25,0,-1
 600 0 l 25,1,-1
 600 300 l 25,2,-1
 149.999969482 300 l 25,3,-1
 149.999969482 450 l 25,4,-1
 600 450 l 25,5,-1
 600 750 l 25,6,-1
 0 750 l 25,7,-1
 0 0 l 25,0,-1
EndSplineSet
Validated: 9
EndChar

StartChar: period
Encoding: 273 46 17
Width: 300
Flags: W
LayerCount: 2
Fore
SplineSet
0 0 m 29,0,-1
 149.999969482 0 l 29,1,-1
 149.999969482 150 l 29,2,-1
 300 150 l 29,3,-1
 300 750 l 29,4,-1
 0 750 l 29,5,-1
 0 0 l 29,0,-1
EndSplineSet
Validated: 9
EndChar

StartChar: slash
Encoding: 274 47 18
Width: 900
Flags: W
LayerCount: 2
Fore
SplineSet
900.014648438 600 m 17,0,-1
 750 600 l 25,1,-1
 750 450 l 25,2,-1
 600 450 l 25,3,-1
 600 300 l 25,4,-1
 450 300 l 25,5,-1
 450 150 l 25,6,-1
 300 150 l 25,7,-1
 300 0 l 1,8,-1
 900.032226562 0 l 25,9,-1
 900.014648438 600 l 17,0,-1
0 748 m 25,10,-1
 0 0 l 25,11,-1
 149.999969482 0 l 25,12,-1
 150 150 l 25,13,-1
 300 150 l 25,14,-1
 300 300 l 25,15,-1
 450 300 l 25,16,-1
 450 450 l 25,17,-1
 600 450 l 25,18,-1
 600 600 l 25,19,-1
 750 600 l 25,20,-1
 750 750 l 25,21,-1
 0 748 l 25,10,-1
EndSplineSet
Validated: 524293
EndChar

StartChar: zero
Encoding: 275 48 19
Width: 600
Flags: W
LayerCount: 2
Fore
SplineSet
450 150 m 1,0,-1
 300 150 l 1,1,-1
 300 600 l 1,2,-1
 450 600 l 1,3,-1
 450 150 l 1,0,-1
0 750 m 25,4,-1
 0 0 l 25,5,-1
 149.999969482 0 l 25,6,-1
 149.999969482 750 l 25,7,-1
 0 750 l 25,4,-1
EndSplineSet
Validated: 9
EndChar

StartChar: one
Encoding: 276 49 20
Width: 300
Flags: W
LayerCount: 2
Fore
SplineSet
0 750 m 25,0,-1
 0 0 l 25,1,-1
 149.999969482 0 l 25,2,-1
 149.999969482 750 l 25,3,-1
 0 750 l 25,0,-1
EndSplineSet
Validated: 9
EndChar

StartChar: two
Encoding: 277 50 21
Width: 600
Flags: W
LayerCount: 2
Fore
SplineSet
0 750 m 25,0,-1
 149.999969482 750 l 25,1,-1
 149.999969482 600 l 25,2,-1
 450 600 l 25,3,-1
 450 450 l 25,4,-1
 149.999969482 450 l 25,5,-1
 149.999969482 0 l 25,6,-1
 0 0 l 25,7,-1
 0 750 l 25,0,-1
300 150 m 25,8,-1
 600 150 l 25,9,-1
 600 300 l 25,10,-1
 300 300 l 25,11,-1
 300 150 l 25,8,-1
EndSplineSet
Validated: 9
EndChar

StartChar: three
Encoding: 278 51 22
Width: 603
Flags: W
LayerCount: 2
Fore
SplineSet
0 0 m 25,0,-1
 149.999969482 0 l 25,1,-1
 149.999969482 150 l 25,2,-1
 450 150 l 25,3,-1
 450 300 l 25,4,-1
 149.999969482 300 l 25,5,-1
 149.999969482 450 l 25,6,-1
 450 450 l 25,7,-1
 450 600 l 25,8,-1
 149.999969482 600 l 25,9,-1
 149.999969482 750 l 25,10,-1
 0 750 l 25,11,-1
 0 0 l 25,0,-1
EndSplineSet
Validated: 9
EndChar

StartChar: four
Encoding: 279 52 23
Width: 600
Flags: W
LayerCount: 2
Fore
SplineSet
299.999969482 450 m 25,0,-1
 450 450 l 25,1,-1
 450 750 l 25,2,-1
 299.999969482 750 l 25,3,-1
 299.999969482 450 l 25,0,-1
0 750 m 25,4,-1
 0 0 l 25,5,-1
 450 0 l 25,6,-1
 450 300 l 25,7,-1
 150 300 l 25,8,-1
 149.999969482 750 l 25,9,-1
 0 750 l 25,4,-1
EndSplineSet
Validated: 9
EndChar

StartChar: five
Encoding: 280 53 24
Width: 600
Flags: W
LayerCount: 2
Fore
SplineSet
450 150 m 25,0,-1
 149.999969482 150 l 25,1,-1
 149.999969482 0 l 25,2,-1
 0 0 l 25,3,-1
 0 750 l 25,4,-1
 149.999969482 750 l 25,5,-1
 149.999969482 300 l 25,6,-1
 450 300 l 25,7,-1
 450 150 l 25,0,-1
600 450 m 25,8,-1
 300 450 l 25,9,-1
 300 600 l 25,10,-1
 600 600 l 25,11,-1
 600 450 l 25,8,-1
EndSplineSet
Validated: 1
EndChar

StartChar: six
Encoding: 281 54 25
Width: 600
Flags: W
LayerCount: 2
Fore
SplineSet
299.999969482 450 m 25,0,-1
 600 450 l 25,1,-1
 600 600 l 25,2,-1
 299.999969482 600 l 25,3,-1
 299.999969482 450 l 25,0,-1
299.999969482 150 m 25,4,-1
 450 150 l 25,5,-1
 450 300 l 25,6,-1
 299.999969482 300 l 25,7,-1
 299.999969482 150 l 25,4,-1
0 750 m 29,8,-1
 0 0 l 29,9,-1
 149.999969482 0 l 29,10,-1
 149.999969482 750 l 29,11,-1
 0 750 l 29,8,-1
EndSplineSet
Validated: 9
EndChar

StartChar: seven
Encoding: 282 55 26
Width: 600
Flags: W
LayerCount: 2
Fore
SplineSet
0 750 m 25,0,-1
 0 0 l 25,1,-1
 450 0 l 25,2,-1
 450 600 l 25,3,-1
 149.999969482 600 l 25,4,-1
 149.999969482 750 l 25,5,-1
 0 750 l 25,0,-1
EndSplineSet
Validated: 9
EndChar

StartChar: eight
Encoding: 283 56 27
Width: 600
Flags: W
LayerCount: 2
Fore
SplineSet
450 150 m 25,0,-1
 450 300 l 25,1,-1
 299.999969482 300 l 25,2,-1
 299.999969482 150 l 25,3,-1
 450 150 l 25,0,-1
0 750 m 25,4,-1
 0 0 l 25,5,-1
 149.999969482 0 l 25,6,-1
 149.999969482 750 l 25,7,-1
 0 750 l 25,4,-1
300 450 m 25,8,-1
 450 450 l 25,9,-1
 450 600 l 25,10,-1
 300 600 l 25,11,-1
 300 450 l 25,8,-1
EndSplineSet
Validated: 9
EndChar

StartChar: nine
Encoding: 284 57 28
Width: 600
Flags: W
LayerCount: 2
Fore
SplineSet
299.999969482 450 m 25,0,-1
 450 450 l 25,1,-1
 450 600 l 25,2,-1
 299.999969482 600 l 25,3,-1
 299.999969482 450 l 25,0,-1
0 0 m 25,4,-1
 149.999969482 0 l 25,5,-1
 149.999969482 150 l 25,6,-1
 450 150 l 25,7,-1
 450 300 l 25,8,-1
 149.999969482 300 l 25,9,-1
 149.999969482 750 l 25,10,-1
 0 750 l 25,11,-1
 0 0 l 25,4,-1
EndSplineSet
Validated: 9
EndChar

StartChar: colon
Encoding: 285 58 29
Width: 300
Flags: W
LayerCount: 2
Fore
SplineSet
299.999969482 0 m 1,0,-1
 299.999969482 150 l 25,1,-1
 149.999969482 150 l 25,2,-1
 149.999969482 300 l 25,3,-1
 299.999969482 300 l 25,4,-1
 299.999969482 450 l 25,5,-1
 149.999969482 450 l 25,6,-1
 149.999969482 600 l 25,7,-1
 299.999969482 600 l 25,8,-1
 299.999969482 750 l 1,9,-1
 0 750 l 25,10,-1
 0 0 l 25,11,-1
 299.999969482 0 l 1,0,-1
EndSplineSet
Validated: 9
EndChar

StartChar: semicolon
Encoding: 286 59 30
Width: 300
Flags: W
LayerCount: 2
Fore
SplineSet
149.999969482 300 m 17,0,-1
 299.999969482 300 l 25,1,-1
 299.999969482 450 l 25,2,-1
 149.999969482 450 l 25,3,-1
 149.999969482 600 l 25,4,-1
 299.999969482 600 l 25,5,-1
 299.999969482 750 l 1,6,-1
 0 750 l 25,7,-1
 0 0 l 1,8,-1
 150 0 l 9,9,-1
 149.999969482 300 l 17,0,-1
EndSplineSet
Validated: 9
EndChar

StartChar: less
Encoding: 287 60 31
Width: 600
Flags: W
LayerCount: 2
Fore
SplineSet
600 150 m 25,0,-1
 600 600 l 25,1,-1
 450 600 l 25,2,-1
 450 450 l 25,3,-1
 299.999969482 450 l 25,4,-1
 299.999969482 300 l 25,5,-1
 450 300 l 25,6,-1
 450 150 l 25,7,-1
 600 150 l 25,0,-1
450 0 m 25,8,-1
 0 0 l 25,9,-1
 0 750 l 25,10,-1
 450 750 l 25,11,-1
 450 600 l 25,12,-1
 299.999969482 600 l 25,13,-1
 299.999969482 450 l 25,14,-1
 149.999969482 450 l 25,15,-1
 149.999969482 300 l 25,16,-1
 299.999969482 300 l 25,17,-1
 299.999969482 150 l 25,18,-1
 450 150 l 25,19,-1
 450 0 l 25,8,-1
EndSplineSet
Validated: 5
EndChar

StartChar: equal
Encoding: 288 61 32
Width: 600
Flags: W
LayerCount: 2
Fore
SplineSet
0 0 m 25,0,-1
 600 0 l 25,1,-1
 600 150 l 25,2,-1
 149.999969482 150 l 25,3,-1
 149.999969482 300 l 25,4,-1
 600 300 l 25,5,-1
 600 450 l 25,6,-1
 149.999969482 450 l 25,7,-1
 149.999969482 600 l 25,8,-1
 600 600 l 25,9,-1
 600 750 l 25,10,-1
 0 750 l 25,11,-1
 0 0 l 25,0,-1
EndSplineSet
Validated: 9
EndChar

StartChar: greater
Encoding: 289 62 33
Width: 600
Flags: W
LayerCount: 2
Fore
SplineSet
600 450 m 25,0,-1
 600 750 l 25,1,-1
 299.999969482 750 l 25,2,-1
 299.999969482 600 l 25,3,-1
 450 600 l 25,4,-1
 450 450 l 25,5,-1
 600 450 l 25,0,-1
299.999969482 0 m 25,6,-1
 600 0 l 25,7,-1
 600 300 l 25,8,-1
 450 300 l 25,9,-1
 450 150 l 25,10,-1
 299.999969482 150 l 25,11,-1
 299.999969482 0 l 25,6,-1
0 0 m 25,12,-1
 149.999969482 0 l 25,13,-1
 149.999969482 150 l 25,14,-1
 299.999969482 150 l 25,15,-1
 299.999969482 300 l 25,16,-1
 450 300 l 25,17,-1
 450 450 l 25,18,-1
 299.999969482 450 l 25,19,-1
 299.999969482 600 l 25,20,-1
 149.999969482 600 l 25,21,-1
 149.999969482 750 l 25,22,-1
 0 750 l 25,23,-1
 0 0 l 25,12,-1
EndSplineSet
Validated: 5
EndChar

StartChar: question
Encoding: 290 63 34
Width: 600
Flags: W
LayerCount: 2
Fore
SplineSet
0 0 m 25,0,-1
 299.999969482 0 l 25,1,-1
 299.999969482 150 l 25,2,-1
 450 150 l 25,3,-1
 450 0 l 25,4,-1
 600 0 l 25,5,-1
 600 300 l 25,6,-1
 299.999969482 300 l 25,7,-1
 299.999969482 450 l 25,8,-1
 450 450 l 25,9,-1
 450 600 l 25,10,-1
 149.999969482 600 l 25,11,-1
 149.999969482 750 l 25,12,-1
 0 750 l 25,13,-1
 0 0 l 25,0,-1
EndSplineSet
Validated: 9
EndChar

StartChar: at
Encoding: 291 64 35
Width: 900
Flags: W
LayerCount: 2
Fore
SplineSet
0 750 m 25,0,-1
 0 0 l 25,1,-1
 149.999969482 0 l 25,2,-1
 149.999969482 750 l 25,3,-1
 0 750 l 25,0,-1
600 150 m 25,4,-1
 750 150 l 25,5,-1
 750 300 l 25,6,-1
 600 300 l 25,7,-1
 600 150 l 25,4,-1
450 150 m 25,8,-1
 300 150 l 25,9,-1
 300 600 l 25,10,-1
 750 600 l 25,11,-1
 750 450 l 25,12,-1
 450 450 l 25,13,-1
 450 150 l 25,8,-1
EndSplineSet
Validated: 9
EndChar

StartChar: A
Encoding: 292 65 36
Width: 450
Flags: W
LayerCount: 2
Fore
SplineSet
150 450 m 25,0,-1
 300 450 l 25,1,-1
 300 601 l 25,2,-1
 150 601 l 25,3,-1
 150 450 l 25,0,-1
150 1 m 25,4,-1
 300 1 l 1,5,-1
 300 300 l 25,6,-1
 150 300 l 1,7,-1
 150 1 l 25,4,-1
EndSplineSet
Validated: 9
EndChar

StartChar: B
Encoding: 293 66 37
Width: 450
Flags: W
LayerCount: 2
Fore
SplineSet
450 300 m 25,0,-1
 299.999969482 300 l 25,1,-1
 299.999969482 450 l 25,2,-1
 450 450 l 25,3,-1
 450 300 l 25,0,-1
149.999969482 600 m 25,4,-1
 149.999969482 450 l 25,5,-1
 299.999969482 450 l 25,6,-1
 299.999969482 600 l 25,7,-1
 149.999969482 600 l 25,4,-1
299.999969482 300 m 25,8,-1
 299.999969482 150 l 25,9,-1
 149.999969482 150 l 25,10,-1
 149.999969482 300 l 25,11,-1
 299.999969482 300 l 25,8,-1
EndSplineSet
Validated: 5
EndChar

StartChar: C
Encoding: 294 67 38
Width: 450
Flags: W
LayerCount: 2
Fore
SplineSet
450 150 m 25,0,-1
 149.999969482 150 l 25,1,-1
 149.999969482 600 l 25,2,-1
 450 600 l 25,3,-1
 450 150 l 25,0,-1
EndSplineSet
Validated: 1
EndChar

StartChar: D
Encoding: 295 68 39
Width: 450
Flags: W
LayerCount: 2
Fore
SplineSet
299.999969482 600 m 29,0,-1
 450 600 l 29,1,-1
 450 750 l 29,2,-1
 299.999969482 750 l 29,3,-1
 299.999969482 600 l 29,0,-1
299.999969482 0 m 29,4,-1
 450 0 l 29,5,-1
 450 150 l 29,6,-1
 299.999969482 150 l 29,7,-1
 299.999969482 0 l 29,4,-1
149.999969482 150 m 29,8,-1
 299.999969482 150 l 29,9,-1
 299.999969482 600 l 29,10,-1
 149.999969482 600 l 29,11,-1
 149.999969482 150 l 29,8,-1
EndSplineSet
Validated: 5
EndChar

StartChar: E
Encoding: 296 69 40
Width: 450
Flags: W
LayerCount: 2
Fore
SplineSet
149.999969482 600 m 1,0,-1
 150 450 l 1,1,-1
 450 450 l 1,2,-1
 450 600 l 1,3,-1
 149.999969482 600 l 1,0,-1
149.999969482 300 m 1,4,-1
 149.999969482 150 l 1,5,-1
 450 150 l 1,6,-1
 450 300 l 1,7,-1
 149.999969482 300 l 1,4,-1
EndSplineSet
Validated: 9
EndChar

StartChar: F
Encoding: 297 70 41
Width: 450
Flags: W
LayerCount: 2
Fore
SplineSet
149.999969482 600 m 1,0,-1
 149.999969482 450 l 1,1,-1
 450 450 l 1,2,-1
 450 600 l 1,3,-1
 149.999969482 600 l 1,0,-1
149.999969482 300 m 1,4,-1
 149.999969482 0 l 1,5,-1
 450 0 l 1,6,-1
 450 300 l 1,7,-1
 149.999969482 300 l 1,4,-1
EndSplineSet
Validated: 524297
EndChar

StartChar: G
Encoding: 298 71 42
Width: 450
Flags: W
LayerCount: 2
Fore
SplineSet
299.999969482 150 m 29,0,-1
 149.999969482 150 l 29,1,-1
 149.999969482 600 l 29,2,-1
 450 600 l 29,3,-1
 450 450 l 29,4,-1
 299.999969482 450 l 29,5,-1
 299.999969482 150 l 29,0,-1
EndSplineSet
Validated: 1
EndChar

StartChar: H
Encoding: 299 72 43
Width: 450
Flags: W
LayerCount: 2
Fore
SplineSet
299.999969482 450 m 29,0,-1
 299.999969482 750 l 29,1,-1
 149.999969482 750 l 29,2,-1
 149.999969482 450 l 29,3,-1
 299.999969482 450 l 29,0,-1
149.999969482 0 m 29,4,-1
 299.999969482 0 l 29,5,-1
 299.999969482 300 l 29,6,-1
 149.999969482 300 l 29,7,-1
 149.999969482 0 l 29,4,-1
EndSplineSet
Validated: 9
EndChar

StartChar: I
Encoding: 300 73 44
Width: 150
Flags: W
LayerCount: 2
Fore
SplineSet
0 0 m 25,0,-1
 150 0 l 1049,1,-1
EndSplineSet
Validated: 3
EndChar

StartChar: J
Encoding: 301 74 45
Width: 300
Flags: W
LayerCount: 2
Fore
SplineSet
149.999969482 750 m 29,0,-1
 149.999969482 150 l 29,1,-1
 0 150 l 29,2,-1
 0 750 l 29,3,-1
 149.999969482 750 l 29,0,-1
149.999969482 0 m 29,4,-1
 300 0 l 29,5,-1
 300 150 l 29,6,-1
 149.999969482 150 l 29,7,-1
 149.999969482 0 l 29,4,-1
EndSplineSet
Validated: 5
EndChar

StartChar: K
Encoding: 302 75 46
Width: 450
Flags: W
LayerCount: 2
Fore
SplineSet
450 300 m 29,0,-1
 299.999969482 300 l 29,1,-1
 299.999969482 450 l 29,2,-1
 450 450 l 29,3,-1
 450 300 l 29,0,-1
299.999969482 450 m 29,4,-1
 299.999969482 750 l 29,5,-1
 149.999969482 750 l 29,6,-1
 149.999969482 450 l 29,7,-1
 299.999969482 450 l 29,4,-1
149.999969482 0 m 29,8,-1
 299.999969482 0 l 29,9,-1
 299.999969482 300 l 29,10,-1
 149.999969482 300 l 29,11,-1
 149.999969482 0 l 29,8,-1
EndSplineSet
Validated: 5
EndChar

StartChar: L
Encoding: 303 76 47
Width: 450
Flags: W
LayerCount: 2
Fore
SplineSet
149.999969482 750 m 25,0,-1
 149.999969482 150 l 25,1,-1
 450 150 l 25,2,-1
 450 750 l 25,3,-1
 149.999969482 750 l 25,0,-1
EndSplineSet
Validated: 9
EndChar

StartChar: M
Encoding: 304 77 48
Width: 750
Flags: W
LayerCount: 2
Fore
SplineSet
450 600 m 29,0,-1
 450 0 l 29,1,-1
 600 0 l 29,2,-1
 600 600 l 29,3,-1
 450 600 l 29,0,-1
149.999969482 0 m 29,4,-1
 299.999969482 0 l 29,5,-1
 299.999969482 600 l 29,6,-1
 149.999969482 600 l 29,7,-1
 149.999969482 0 l 29,4,-1
EndSplineSet
Validated: 9
EndChar

StartChar: N
Encoding: 305 78 49
Width: 450
Flags: WO
LayerCount: 2
Fore
SplineSet
149.999969482 0 m 25,0,-1
 299.999969482 0 l 25,1,-1
 299.999969482 600 l 25,2,-1
 149.999969482 600 l 25,3,-1
 149.999969482 0 l 25,0,-1
EndSplineSet
EndChar

StartChar: O
Encoding: 306 79 50
Width: 450
Flags: W
LayerCount: 2
Fore
SplineSet
300 150 m 5,0,-1
 150 150 l 5,1,-1
 150 600 l 5,2,-1
 300 600 l 5,3,-1
 300 150 l 5,0,-1
EndSplineSet
Validated: 1
EndChar

StartChar: P
Encoding: 307 80 51
Width: 450
Flags: W
LayerCount: 2
Fore
SplineSet
149.999969482 600 m 29,0,-1
 299.999969482 600 l 29,1,-1
 299.999969482 450 l 29,2,-1
 149.999969482 450 l 29,3,-1
 149.999969482 600 l 29,0,-1
149.999969482 0 m 29,4,-1
 450 0 l 29,5,-1
 450 300 l 29,6,-1
 149.999969482 300 l 29,7,-1
 149.999969482 0 l 29,4,-1
EndSplineSet
Validated: 9
EndChar

StartChar: Q
Encoding: 308 81 52
Width: 600
Flags: W
LayerCount: 2
Fore
SplineSet
600 150 m 5,0,-1
 450 150 l 5,1,-1
 450 750 l 5,2,-1
 600 750 l 5,3,-1
 600 150 l 5,0,-1
300 150 m 5,4,-1
 150 150 l 5,5,-1
 150 600 l 5,6,-1
 300 600 l 5,7,-1
 300 150 l 5,4,-1
EndSplineSet
Validated: 1
EndChar

StartChar: R
Encoding: 309 82 53
Width: 450
Flags: W
LayerCount: 2
Fore
SplineSet
450 450 m 29,0,-1
 450 300 l 29,1,-1
 300 300 l 29,2,-1
 300 450 l 29,3,-1
 450 450 l 29,0,-1
150 450 m 29,4,-1
 300 450 l 29,5,-1
 299.999969482 600 l 29,6,-1
 149.999969482 600 l 29,7,-1
 150 450 l 29,4,-1
149.999969482 0 m 29,8,-1
 299.999969482 0 l 5,9,-1
 300 300 l 29,10,-1
 150 300 l 5,11,-1
 149.999969482 0 l 29,8,-1
EndSplineSet
Validated: 5
EndChar

StartChar: S
Encoding: 310 83 54
Width: 450
Flags: W
LayerCount: 2
Fore
SplineSet
450 450 m 29,0,-1
 149.999969482 450 l 29,1,-1
 149.999969482 600 l 29,2,-1
 450 600 l 29,3,-1
 450 450 l 29,0,-1
0 150 m 29,4,-1
 299.999969482 150 l 29,5,-1
 299.999969482 300 l 29,6,-1
 0 300 l 29,7,-1
 0 150 l 29,4,-1
EndSplineSet
Validated: 9
EndChar

StartChar: T
Encoding: 311 84 55
Width: 450
Flags: W
LayerCount: 2
Fore
SplineSet
299.999969482 600 m 29,0,-1
 299.999969482 0 l 29,1,-1
 450 0 l 29,2,-1
 450 600 l 29,3,-1
 299.999969482 600 l 29,0,-1
0 0 m 29,4,-1
 149.999969482 0 l 29,5,-1
 149.999969482 600 l 29,6,-1
 0 600 l 29,7,-1
 0 0 l 29,4,-1
EndSplineSet
Validated: 9
EndChar

StartChar: U
Encoding: 312 85 56
Width: 450
Flags: W
LayerCount: 2
Fore
SplineSet
149.999969482 150 m 29,0,-1
 299.999969482 150 l 29,1,-1
 299.999969482 750 l 29,2,-1
 149.999969482 750 l 29,3,-1
 149.999969482 150 l 29,0,-1
EndSplineSet
Validated: 9
EndChar

StartChar: V
Encoding: 313 86 57
Width: 450
Flags: W
LayerCount: 2
Fore
SplineSet
299.999969482 0 m 29,0,-1
 450 0 l 29,1,-1
 450 150 l 29,2,-1
 299.999969482 150 l 29,3,-1
 299.999969482 0 l 29,0,-1
0 150 m 29,4,-1
 0 0 l 29,5,-1
 149.999969482 0 l 29,6,-1
 149.999969482 150 l 29,7,-1
 0 150 l 29,4,-1
149.999969482 150 m 29,8,-1
 299.999969482 150 l 29,9,-1
 299.999969482 750 l 29,10,-1
 149.999969482 750 l 29,11,-1
 149.999969482 150 l 29,8,-1
EndSplineSet
Validated: 5
EndChar

StartChar: W
Encoding: 314 87 58
Width: 750
Flags: W
LayerCount: 2
Fore
SplineSet
450 750 m 29,0,-1
 450 150 l 29,1,-1
 600 150 l 29,2,-1
 600 750 l 29,3,-1
 450 750 l 29,0,-1
149.999969482 750 m 29,4,-1
 149.999969482 150 l 29,5,-1
 299.999969482 150 l 29,6,-1
 299.999969482 750 l 29,7,-1
 149.999969482 750 l 29,4,-1
EndSplineSet
Validated: 9
EndChar

StartChar: X
Encoding: 315 88 59
Width: 450
Flags: W
LayerCount: 2
Fore
SplineSet
0 450 m 29,0,-1
 0 300 l 29,1,-1
 150 300 l 29,2,-1
 150 450 l 29,3,-1
 0 450 l 29,0,-1
450 450 m 29,4,-1
 450 300 l 29,5,-1
 300 300 l 29,6,-1
 300 450 l 29,7,-1
 450 450 l 29,4,-1
150 450 m 29,8,-1
 300 450 l 29,9,-1
 300 750 l 29,10,-1
 150 750 l 29,11,-1
 150 450 l 29,8,-1
149.999969482 0 m 29,12,-1
 299.999969482 0 l 5,13,-1
 300 300 l 29,14,-1
 150 300 l 5,15,-1
 149.999969482 0 l 29,12,-1
EndSplineSet
Validated: 5
EndChar

StartChar: Y
Encoding: 316 89 60
Width: 450
Flags: W
LayerCount: 2
Fore
SplineSet
150 450 m 5,0,-1
 0 450 l 5,1,-1
 0 0 l 5,2,-1
 150 0 l 5,3,-1
 150 450 l 5,0,-1
300 450 m 5,4,-1
 300 0 l 5,5,-1
 450 0 l 5,6,-1
 450 450 l 5,7,-1
 300 450 l 5,4,-1
150 450 m 5,8,-1
 300 450 l 5,9,-1
 300 750 l 5,10,-1
 150 750 l 5,11,-1
 150 450 l 5,8,-1
EndSplineSet
Validated: 5
EndChar

StartChar: Z
Encoding: 317 90 61
Width: 450
Flags: W
LayerCount: 2
Fore
SplineSet
300 450 m 29,0,-1
 0 450 l 29,1,-1
 0 600 l 29,2,-1
 300 600 l 29,3,-1
 300 450 l 29,0,-1
150 150 m 29,4,-1
 450 150 l 29,5,-1
 450 300 l 29,6,-1
 150 300 l 29,7,-1
 150 150 l 29,4,-1
EndSplineSet
Validated: 9
EndChar

StartChar: bracketleft
Encoding: 318 91 62
Width: 450
Flags: W
LayerCount: 2
Fore
SplineSet
299.999969482 150 m 25,0,-1
 450 150 l 25,1,-1
 450 600 l 25,2,-1
 299.999969482 600 l 25,3,-1
 299.999969482 150 l 25,0,-1
0 750 m 25,4,-1
 0 0 l 25,5,-1
 149.999969482 0 l 25,6,-1
 149.999969482 750 l 25,7,-1
 0 750 l 25,4,-1
EndSplineSet
Validated: 9
EndChar

StartChar: backslash
Encoding: 319 92 63
Width: 900
Flags: W
LayerCount: 2
Fore
SplineSet
0 750 m 1,0,-1
 0 600 l 1,1,-1
 150 600 l 1,2,-1
 150 750 l 1,3,-1
 0 750 l 1,0,-1
150 600 m 1,4,-1
 150 450 l 1,5,-1
 300 450 l 1,6,-1
 300 600 l 1,7,-1
 150 600 l 1,4,-1
300 450 m 1,8,-1
 300 300 l 1,9,-1
 450 300 l 1,10,-1
 450 450 l 1,11,-1
 300 450 l 1,8,-1
450 300 m 1,12,-1
 450 150 l 1,13,-1
 600 150 l 1,14,-1
 600 300 l 1,15,-1
 450 300 l 1,12,-1
750 0 m 1,16,-1
 750 150 l 1,17,-1
 600 150 l 1,18,-1
 600 0 l 1,19,-1
 750 0 l 1,16,-1
EndSplineSet
Validated: 5
EndChar

StartChar: bracketright
Encoding: 320 93 64
Width: 450
Flags: W
LayerCount: 2
Fore
SplineSet
0 0 m 25,0,-1
 149.999969482 0 l 25,1,-1
 149.999969482 150 l 25,2,-1
 299.999969482 150 l 25,3,-1
 299.999969482 600 l 25,4,-1
 149.999969482 600 l 25,5,-1
 149.999969482 750 l 25,6,-1
 0 750 l 25,7,-1
 0 0 l 25,0,-1
EndSplineSet
Validated: 9
EndChar

StartChar: asciicircum
Encoding: 321 94 65
Width: 600
Flags: W
LayerCount: 2
Fore
SplineSet
600 600 m 25,0,-1
 600 750 l 25,1,-1
 450 750 l 25,2,-1
 450 600 l 25,3,-1
 600 600 l 25,0,-1
0 0 m 25,4,-1
 0 750 l 25,5,-1
 299.999969482 750 l 25,6,-1
 299.999969482 600 l 25,7,-1
 149.999969482 600 l 25,8,-1
 149.999969482 450 l 25,9,-1
 299.999969482 450 l 25,10,-1
 299.999969482 600 l 25,11,-1
 450 600 l 25,12,-1
 450 450 l 25,13,-1
 600 450 l 25,14,-1
 600 0 l 25,15,-1
 0 0 l 25,4,-1
EndSplineSet
Validated: 5
EndChar

StartChar: underscore
Encoding: 322 95 66
Width: 600
Flags: W
LayerCount: 2
Fore
SplineSet
0 0 m 25,0,-1
 149.999969482 0 l 25,1,-1
 149.999969482 150 l 25,2,-1
 600.014648438 150 l 25,3,-1
 600.014648438 750 l 25,4,-1
 0 750 l 25,5,-1
 0 0 l 25,0,-1
EndSplineSet
Validated: 9
EndChar

StartChar: grave
Encoding: 323 96 67
Width: 450
Flags: W
LayerCount: 2
Fore
SplineSet
450 600 m 25,0,-1
 450 750 l 25,1,-1
 299.999969482 750 l 25,2,-1
 299.999969482 600 l 25,3,-1
 450 600 l 25,0,-1
0 0 m 25,4,-1
 0 750 l 25,5,-1
 149.999969482 750 l 25,6,-1
 149.999969482 600 l 25,7,-1
 299.999969482 600 l 25,8,-1
 299.999969482 450 l 25,9,-1
 450 450 l 25,10,-1
 450 0 l 25,11,-1
 0 0 l 25,4,-1
EndSplineSet
Validated: 5
EndChar

StartChar: a
Encoding: 324 97 68
Width: 600
Flags: W
LayerCount: 2
Fore
SplineSet
0 750 m 29,0,-1
 0 0 l 29,1,-1
 149.999969482 0 l 29,2,-1
 149.999969482 750 l 29,3,-1
 0 750 l 29,0,-1
300 450 m 25,4,-1
 450 450 l 25,5,-1
 450 601 l 25,6,-1
 300 601 l 25,7,-1
 300 450 l 25,4,-1
300 1 m 25,8,-1
 450 1 l 1,9,-1
 450 300 l 25,10,-1
 300 300 l 1,11,-1
 300 1 l 25,8,-1
EndSplineSet
Validated: 9
EndChar

StartChar: b
Encoding: 325 98 69
Width: 600
Flags: W
LayerCount: 2
Fore
SplineSet
600 300 m 25,0,-1
 600 450 l 25,1,-1
 450 450 l 25,2,-1
 450 300 l 25,3,-1
 600 300 l 25,0,-1
300 600 m 25,4,-1
 300 450 l 25,5,-1
 450 450 l 25,6,-1
 450 600 l 25,7,-1
 300 600 l 25,4,-1
450 300 m 25,8,-1
 450 150 l 25,9,-1
 300 150 l 25,10,-1
 300 300 l 25,11,-1
 450 300 l 25,8,-1
0 750 m 25,12,-1
 0 0 l 25,13,-1
 149.999969482 0 l 25,14,-1
 149.999969482 750 l 25,15,-1
 0 750 l 25,12,-1
EndSplineSet
Validated: 5
EndChar

StartChar: c
Encoding: 326 99 70
Width: 600
Flags: W
LayerCount: 2
Fore
SplineSet
600 150 m 25,0,-1
 300 150 l 1,1,-1
 300 600 l 1,2,-1
 600 600 l 25,3,-1
 600 150 l 25,0,-1
0 750 m 25,4,-1
 0 0 l 25,5,-1
 149.999969482 0 l 25,6,-1
 149.999969482 750 l 25,7,-1
 0 750 l 25,4,-1
EndSplineSet
Validated: 9
EndChar

StartChar: d
Encoding: 327 100 71
Width: 600
Flags: W
LayerCount: 2
Fore
SplineSet
450 600 m 25,0,-1
 600 600 l 25,1,-1
 600 750 l 25,2,-1
 450 750 l 25,3,-1
 450 600 l 25,0,-1
450 0 m 25,4,-1
 600 0 l 25,5,-1
 600 150 l 25,6,-1
 450 150 l 25,7,-1
 450 0 l 25,4,-1
300 150 m 25,8,-1
 450 150 l 25,9,-1
 450 600 l 25,10,-1
 300 600 l 25,11,-1
 300 150 l 25,8,-1
0 750 m 25,12,-1
 0 0 l 25,13,-1
 149.999969482 0 l 25,14,-1
 149.999969482 750 l 25,15,-1
 0 750 l 25,12,-1
EndSplineSet
Validated: 5
EndChar

StartChar: e
Encoding: 328 101 72
Width: 600
Flags: W
LayerCount: 2
Fore
SplineSet
300 600 m 1,0,-1
 300 450 l 1,1,-1
 600 450 l 1,2,-1
 600 600 l 1,3,-1
 300 600 l 1,0,-1
300 300 m 1,4,-1
 300 150 l 1,5,-1
 600 150 l 1,6,-1
 600 300 l 1,7,-1
 300 300 l 1,4,-1
0 750 m 29,8,-1
 0 0 l 29,9,-1
 149.999969482 0 l 29,10,-1
 149.999969482 750 l 29,11,-1
 0 750 l 29,8,-1
EndSplineSet
Validated: 9
EndChar

StartChar: f
Encoding: 329 102 73
Width: 600
Flags: W
LayerCount: 2
Fore
SplineSet
300 600 m 1,0,-1
 300 450 l 1,1,-1
 600 450 l 1,2,-1
 600 600 l 1,3,-1
 300 600 l 1,0,-1
300 300 m 1,4,-1
 300 0 l 1,5,-1
 600 0 l 1,6,-1
 600 300 l 1,7,-1
 300 300 l 1,4,-1
0 750 m 25,8,-1
 0 0 l 25,9,-1
 149.999969482 0 l 25,10,-1
 149.999969482 750 l 25,11,-1
 0 750 l 25,8,-1
EndSplineSet
Validated: 524297
EndChar

StartChar: g
Encoding: 330 103 74
Width: 600
Flags: W
LayerCount: 2
Fore
SplineSet
450 150 m 25,0,-1
 300 150 l 25,1,-1
 300 600 l 25,2,-1
 600 600 l 25,3,-1
 600 450 l 25,4,-1
 450 450 l 25,5,-1
 450 150 l 25,0,-1
0 750 m 25,6,-1
 0 0 l 25,7,-1
 149.999969482 0 l 25,8,-1
 149.999969482 750 l 25,9,-1
 0 750 l 25,6,-1
EndSplineSet
Validated: 9
EndChar

StartChar: h
Encoding: 331 104 75
Width: 600
Flags: W
LayerCount: 2
Fore
SplineSet
450 450 m 25,0,-1
 450 750 l 25,1,-1
 300 750 l 25,2,-1
 300 450 l 25,3,-1
 450 450 l 25,0,-1
300 0 m 25,4,-1
 450 0 l 25,5,-1
 450 300 l 25,6,-1
 300 300 l 25,7,-1
 300 0 l 25,4,-1
0 750 m 25,8,-1
 0 0 l 25,9,-1
 149.999969482 0 l 25,10,-1
 149.999969482 750 l 25,11,-1
 0 750 l 25,8,-1
EndSplineSet
Validated: 9
EndChar

StartChar: i
Encoding: 332 105 76
Width: 300
Flags: W
LayerCount: 2
Fore
SplineSet
0 750 m 29,0,-1
 0 0 l 29,1,-1
 149.999969482 0 l 29,2,-1
 149.999969482 750 l 29,3,-1
 0 750 l 29,0,-1
EndSplineSet
Validated: 9
EndChar

StartChar: j
Encoding: 333 106 77
Width: 450
Flags: W
LayerCount: 2
Fore
SplineSet
300 750 m 25,0,-1
 300 150 l 25,1,-1
 150 150 l 25,2,-1
 150 750 l 25,3,-1
 300 750 l 25,0,-1
300 0 m 25,4,-1
 450 0 l 25,5,-1
 450 150 l 25,6,-1
 300 150 l 25,7,-1
 300 0 l 25,4,-1
0 750 m 25,8,-1
 0 0 l 25,9,-1
 149.999969482 0 l 25,10,-1
 149.999969482 750 l 25,11,-1
 0 750 l 25,8,-1
EndSplineSet
Validated: 5
EndChar

StartChar: k
Encoding: 334 107 78
Width: 600
Flags: W
LayerCount: 2
Fore
SplineSet
600 300 m 25,0,-1
 450 300 l 25,1,-1
 450 450 l 25,2,-1
 600 450 l 25,3,-1
 600 300 l 25,0,-1
450 450 m 25,4,-1
 450 750 l 25,5,-1
 300 750 l 25,6,-1
 300 450 l 25,7,-1
 450 450 l 25,4,-1
300 0 m 25,8,-1
 450 0 l 25,9,-1
 450 300 l 25,10,-1
 300 300 l 25,11,-1
 300 0 l 25,8,-1
0 750 m 25,12,-1
 0 0 l 25,13,-1
 149.999969482 0 l 25,14,-1
 149.999969482 750 l 25,15,-1
 0 750 l 25,12,-1
EndSplineSet
Validated: 5
EndChar

StartChar: l
Encoding: 335 108 79
Width: 600
Flags: W
LayerCount: 2
Fore
SplineSet
300 750 m 25,0,-1
 300 150 l 25,1,-1
 600 150 l 25,2,-1
 600 750 l 25,3,-1
 300 750 l 25,0,-1
0 750 m 25,4,-1
 0 0 l 25,5,-1
 149.999969482 0 l 25,6,-1
 149.999969482 750 l 25,7,-1
 0 750 l 25,4,-1
EndSplineSet
Validated: 9
EndChar

StartChar: m
Encoding: 336 109 80
Width: 900
Flags: W
LayerCount: 2
Fore
SplineSet
600 600 m 25,0,-1
 600 0 l 25,1,-1
 750 0 l 25,2,-1
 750 600 l 25,3,-1
 600 600 l 25,0,-1
300 0 m 25,4,-1
 450 0 l 25,5,-1
 450 600 l 25,6,-1
 300 600 l 25,7,-1
 300 0 l 25,4,-1
0 750 m 25,8,-1
 0 0 l 25,9,-1
 149.999969482 0 l 25,10,-1
 149.999969482 750 l 25,11,-1
 0 750 l 25,8,-1
EndSplineSet
Validated: 9
EndChar

StartChar: n
Encoding: 337 110 81
Width: 600
Flags: W
LayerCount: 2
Fore
SplineSet
300 0 m 25,0,-1
 450 0 l 25,1,-1
 450 600 l 25,2,-1
 300 600 l 25,3,-1
 300 0 l 25,0,-1
0 750 m 25,4,-1
 0 0 l 25,5,-1
 149.999969482 0 l 25,6,-1
 149.999969482 750 l 25,7,-1
 0 750 l 25,4,-1
EndSplineSet
Validated: 524297
EndChar

StartChar: o
Encoding: 338 111 82
Width: 600
Flags: W
LayerCount: 2
Fore
SplineSet
450 150 m 5,0,-1
 300 150 l 5,1,-1
 300 600 l 5,2,-1
 450 600 l 5,3,-1
 450 150 l 5,0,-1
0 750 m 29,4,-1
 0 0 l 29,5,-1
 149.999969482 0 l 29,6,-1
 149.999969482 750 l 29,7,-1
 0 750 l 29,4,-1
EndSplineSet
Validated: 9
EndChar

StartChar: p
Encoding: 339 112 83
Width: 600
Flags: W
LayerCount: 2
Fore
SplineSet
300 600 m 25,0,-1
 450 600 l 25,1,-1
 450 450 l 25,2,-1
 300 450 l 25,3,-1
 300 600 l 25,0,-1
300 0 m 25,4,-1
 600 0 l 25,5,-1
 600 300 l 25,6,-1
 300 300 l 25,7,-1
 300 0 l 25,4,-1
0 750 m 25,8,-1
 0 0 l 25,9,-1
 149.999969482 0 l 25,10,-1
 149.999969482 750 l 25,11,-1
 0 750 l 25,8,-1
EndSplineSet
Validated: 9
EndChar

StartChar: q
Encoding: 340 113 84
Width: 750
Flags: W
LayerCount: 2
Fore
SplineSet
750 150 m 1,0,-1
 600 150 l 1,1,-1
 600 750 l 1,2,-1
 750 750 l 1,3,-1
 750 150 l 1,0,-1
450 150 m 1,4,-1
 300 150 l 1,5,-1
 300 600 l 1,6,-1
 450 600 l 1,7,-1
 450 150 l 1,4,-1
0 750 m 25,8,-1
 0 0 l 25,9,-1
 149.999969482 0 l 25,10,-1
 149.999969482 750 l 25,11,-1
 0 750 l 25,8,-1
EndSplineSet
Validated: 9
EndChar

StartChar: r
Encoding: 341 114 85
Width: 600
Flags: W
LayerCount: 2
Fore
SplineSet
600 450 m 25,0,-1
 600 300 l 25,1,-1
 450 300 l 25,2,-1
 450 450 l 25,3,-1
 600 450 l 25,0,-1
300 450 m 25,4,-1
 450 450 l 25,5,-1
 450 600 l 25,6,-1
 300 600 l 25,7,-1
 300 450 l 25,4,-1
300 0 m 25,8,-1
 450 0 l 1,9,-1
 450 300 l 25,10,-1
 300 300 l 1,11,-1
 300 0 l 25,8,-1
0 750 m 25,12,-1
 0 0 l 25,13,-1
 149.999969482 0 l 25,14,-1
 149.999969482 750 l 25,15,-1
 0 750 l 25,12,-1
EndSplineSet
Validated: 5
EndChar

StartChar: s
Encoding: 342 115 86
Width: 600
Flags: W
LayerCount: 2
Fore
SplineSet
450 150 m 29,0,-1
 149.999969482 150 l 29,1,-1
 149.999969482 0 l 29,2,-1
 0 0 l 29,3,-1
 0 750 l 29,4,-1
 149.999969482 750 l 29,5,-1
 149.999969482 300 l 29,6,-1
 450 300 l 29,7,-1
 450 150 l 29,0,-1
600 450 m 29,8,-1
 300 450 l 29,9,-1
 300 600 l 29,10,-1
 600 600 l 29,11,-1
 600 450 l 29,8,-1
EndSplineSet
Validated: 1
EndChar

StartChar: t
Encoding: 343 116 87
Width: 600
Flags: W
LayerCount: 2
Fore
SplineSet
450 600 m 25,0,-1
 450 0 l 25,1,-1
 600 0 l 25,2,-1
 600 600 l 25,3,-1
 450 600 l 25,0,-1
150 0 m 25,4,-1
 300 0 l 25,5,-1
 300 600 l 25,6,-1
 150 600 l 25,7,-1
 150 0 l 25,4,-1
0 750 m 25,8,-1
 0 0 l 25,9,-1
 149.999969482 0 l 25,10,-1
 149.999969482 750 l 25,11,-1
 0 750 l 25,8,-1
EndSplineSet
Validated: 9
EndChar

StartChar: u
Encoding: 344 117 88
Width: 600
Flags: W
LayerCount: 2
Fore
SplineSet
300 150 m 29,0,-1
 450 150 l 29,1,-1
 450 750 l 29,2,-1
 300 750 l 29,3,-1
 300 150 l 29,0,-1
0 750 m 25,4,-1
 0 0 l 25,5,-1
 149.999969482 0 l 25,6,-1
 149.999969482 750 l 25,7,-1
 0 750 l 25,4,-1
EndSplineSet
Validated: 9
EndChar

StartChar: v
Encoding: 345 118 89
Width: 600
Flags: W
LayerCount: 2
Fore
SplineSet
450 0 m 25,0,-1
 600 0 l 25,1,-1
 600 150 l 25,2,-1
 450 150 l 25,3,-1
 450 0 l 25,0,-1
150 150 m 25,4,-1
 150 0 l 25,5,-1
 300 0 l 25,6,-1
 300 150 l 25,7,-1
 150 150 l 25,4,-1
300 150 m 25,8,-1
 450 150 l 25,9,-1
 450 750 l 25,10,-1
 300 750 l 25,11,-1
 300 150 l 25,8,-1
0 750 m 25,12,-1
 0 0 l 25,13,-1
 149.999969482 0 l 25,14,-1
 149.999969482 750 l 25,15,-1
 0 750 l 25,12,-1
EndSplineSet
Validated: 5
EndChar

StartChar: w
Encoding: 346 119 90
Width: 900
Flags: W
LayerCount: 2
Fore
SplineSet
600 750 m 25,0,-1
 600 150 l 25,1,-1
 750 150 l 25,2,-1
 750 750 l 25,3,-1
 600 750 l 25,0,-1
300 750 m 25,4,-1
 300 150 l 25,5,-1
 450 150 l 25,6,-1
 450 750 l 25,7,-1
 300 750 l 25,4,-1
0 750 m 25,8,-1
 0 0 l 25,9,-1
 149.999969482 0 l 25,10,-1
 149.999969482 750 l 25,11,-1
 0 750 l 25,8,-1
EndSplineSet
Validated: 9
EndChar

StartChar: x
Encoding: 347 120 91
Width: 600
Flags: W
LayerCount: 2
Fore
SplineSet
150 450 m 25,0,-1
 150 300 l 25,1,-1
 300 300 l 25,2,-1
 300 450 l 25,3,-1
 150 450 l 25,0,-1
600 450 m 25,4,-1
 600 300 l 25,5,-1
 450 300 l 25,6,-1
 450 450 l 25,7,-1
 600 450 l 25,4,-1
300 450 m 25,8,-1
 450 450 l 25,9,-1
 450 750 l 25,10,-1
 300 750 l 25,11,-1
 300 450 l 25,8,-1
300 0 m 25,12,-1
 450 0 l 1,13,-1
 450 300 l 25,14,-1
 300 300 l 1,15,-1
 300 0 l 25,12,-1
0 750 m 25,16,-1
 0 0 l 25,17,-1
 149.999969482 0 l 25,18,-1
 149.999969482 750 l 25,19,-1
 0 750 l 25,16,-1
EndSplineSet
Validated: 5
EndChar

StartChar: y
Encoding: 348 121 92
Width: 600
Flags: W
LayerCount: 2
Fore
SplineSet
300 450 m 1,0,-1
 150 450 l 1,1,-1
 150 0 l 1,2,-1
 300 0 l 1,3,-1
 300 450 l 1,0,-1
450 450 m 1,4,-1
 450 0 l 1,5,-1
 600 0 l 1,6,-1
 600 450 l 1,7,-1
 450 450 l 1,4,-1
300 450 m 1,8,-1
 450 450 l 1,9,-1
 450 750 l 1,10,-1
 300 750 l 1,11,-1
 300 450 l 1,8,-1
0 750 m 25,12,-1
 0 0 l 25,13,-1
 149.999969482 0 l 25,14,-1
 149.999969482 750 l 25,15,-1
 0 750 l 25,12,-1
EndSplineSet
Validated: 5
EndChar

StartChar: z
Encoding: 349 122 93
Width: 600
Flags: W
LayerCount: 2
Fore
SplineSet
0 750 m 29,0,-1
 149.999969482 750 l 29,1,-1
 149.999969482 600 l 29,2,-1
 450 600 l 29,3,-1
 450 450 l 29,4,-1
 149.999969482 450 l 29,5,-1
 149.999969482 0 l 29,6,-1
 0 0 l 29,7,-1
 0 750 l 29,0,-1
300 150 m 29,8,-1
 600 150 l 29,9,-1
 600 300 l 29,10,-1
 300 300 l 29,11,-1
 300 150 l 29,8,-1
EndSplineSet
Validated: 9
EndChar

StartChar: braceleft
Encoding: 350 123 94
Width: 600
Flags: W
LayerCount: 2
Fore
SplineSet
450 150 m 25,0,-1
 600 150 l 25,1,-1
 600 600 l 25,2,-1
 450 600 l 25,3,-1
 450 450 l 25,4,-1
 299.999969482 450 l 25,5,-1
 299.999969482 300 l 25,6,-1
 450 300 l 25,7,-1
 450 150 l 25,0,-1
149.999969482 300 m 25,8,-1
 299.999969482 300 l 25,9,-1
 299.999969482 0 l 25,10,-1
 0 0 l 25,11,-1
 0 750 l 25,12,-1
 299.999969482 750 l 25,13,-1
 299.999969482 450 l 25,14,-1
 149.999969482 450 l 25,15,-1
 149.999969482 300 l 25,8,-1
EndSplineSet
Validated: 5
EndChar

StartChar: bar
Encoding: 351 124 95
Width: 300
Flags: W
LayerCount: 2
Fore
SplineSet
0 0 m 1,0,-1
 150 0 l 1,1,-1
 150 750 l 1,2,-1
 0 750 l 1,3,-1
 0 0 l 1,0,-1
EndSplineSet
Validated: 9
EndChar

StartChar: braceright
Encoding: 352 125 96
Width: 600
Flags: W
LayerCount: 2
Fore
SplineSet
450 0 m 25,0,-1
 600 0 l 25,1,-1
 600 300 l 25,2,-1
 450 300 l 25,3,-1
 450 0 l 25,0,-1
600 450 m 25,4,-1
 600 750 l 25,5,-1
 450 750 l 25,6,-1
 450 450 l 25,7,-1
 600 450 l 25,4,-1
0 0 m 25,8,-1
 149.999969482 0 l 25,9,-1
 149.999969482 150 l 25,10,-1
 299.999969482 150 l 25,11,-1
 299.999969482 300 l 25,12,-1
 450 300 l 25,13,-1
 450 450 l 25,14,-1
 299.999969482 450 l 25,15,-1
 299.999969482 600 l 25,16,-1
 149.999969482 600 l 25,17,-1
 149.999969482 750 l 25,18,-1
 0 750 l 25,19,-1
 0 0 l 25,8,-1
EndSplineSet
Validated: 5
EndChar

StartChar: asciitilde
Encoding: 353 126 97
Width: 750
Flags: W
LayerCount: 2
Fore
SplineSet
150 450 m 25,0,-1
 150 300 l 1,1,-1
 300 300 l 25,2,-1
 300 450 l 25,3,-1
 450 450 l 25,4,-1
 450 300 l 25,5,-1
 600 300 l 25,6,-1
 600 450 l 25,7,-1
 750 450 l 25,8,-1
 750 0 l 25,9,-1
 0 0 l 25,10,-1
 0 750 l 25,11,-1
 750 750 l 25,12,-1
 750 600 l 25,13,-1
 600 600 l 25,14,-1
 600 450 l 25,15,-1
 450 450 l 25,16,-1
 450 600 l 25,17,-1
 299.999969482 600 l 25,18,-1
 300 450 l 25,19,-1
 150 450 l 25,0,-1
EndSplineSet
Validated: 5
EndChar

